<svg width="11" height="12" viewBox="0 0 11 12" fill="none" xmlns="http://www.w3.org/2000/svg">
<path d="M9.52441 2.22363H8.49316V1.10645C8.49316 0.977539 8.36426 0.848633 8.23535 0.848633H8.06348C7.91309 0.848633 7.80566 0.977539 7.80566 1.10645V2.22363H3.68066V1.10645C3.68066 0.977539 3.55176 0.848633 3.42285 0.848633H3.25098C3.10059 0.848633 2.99316 0.977539 2.99316 1.10645V2.22363H1.96191C1.38184 2.22363 0.930664 2.69629 0.930664 3.25488V10.8174C0.930664 11.3975 1.38184 11.8486 1.96191 11.8486H9.52441C10.083 11.8486 10.5557 11.3975 10.5557 10.8174V3.25488C10.5557 2.69629 10.083 2.22363 9.52441 2.22363ZM1.96191 2.91113H9.52441C9.69629 2.91113 9.86816 3.08301 9.86816 3.25488V4.28613H1.61816V3.25488C1.61816 3.08301 1.76855 2.91113 1.96191 2.91113ZM9.52441 11.1611H1.96191C1.76855 11.1611 1.61816 11.0107 1.61816 10.8174V4.97363H9.86816V10.8174C9.86816 11.0107 9.69629 11.1611 9.52441 11.1611ZM4.11035 7.72363C4.23926 7.72363 4.36816 7.61621 4.36816 7.46582V6.60645C4.36816 6.47754 4.23926 6.34863 4.11035 6.34863H3.25098C3.10059 6.34863 2.99316 6.47754 2.99316 6.60645V7.46582C2.99316 7.61621 3.10059 7.72363 3.25098 7.72363H4.11035ZM6.17285 7.72363C6.30176 7.72363 6.43066 7.61621 6.43066 7.46582V6.60645C6.43066 6.47754 6.30176 6.34863 6.17285 6.34863H5.31348C5.16309 6.34863 5.05566 6.47754 5.05566 6.60645V7.46582C5.05566 7.61621 5.16309 7.72363 5.31348 7.72363H6.17285ZM8.23535 7.72363C8.36426 7.72363 8.49316 7.61621 8.49316 7.46582V6.60645C8.49316 6.47754 8.36426 6.34863 8.23535 6.34863H7.37598C7.22559 6.34863 7.11816 6.47754 7.11816 6.60645V7.46582C7.11816 7.61621 7.22559 7.72363 7.37598 7.72363H8.23535ZM6.17285 9.78613C6.30176 9.78613 6.43066 9.67871 6.43066 9.52832V8.66895C6.43066 8.54004 6.30176 8.41113 6.17285 8.41113H5.31348C5.16309 8.41113 5.05566 8.54004 5.05566 8.66895V9.52832C5.05566 9.67871 5.16309 9.78613 5.31348 9.78613H6.17285ZM4.11035 9.78613C4.23926 9.78613 4.36816 9.67871 4.36816 9.52832V8.66895C4.36816 8.54004 4.23926 8.41113 4.11035 8.41113H3.25098C3.10059 8.41113 2.99316 8.54004 2.99316 8.66895V9.52832C2.99316 9.67871 3.10059 9.78613 3.25098 9.78613H4.11035ZM8.23535 9.78613C8.36426 9.78613 8.49316 9.67871 8.49316 9.52832V8.66895C8.49316 8.54004 8.36426 8.41113 8.23535 8.41113H7.37598C7.22559 8.41113 7.11816 8.54004 7.11816 8.66895V9.52832C7.11816 9.67871 7.22559 9.78613 7.37598 9.78613H8.23535Z" fill="#646464"/>
</svg>
